<?xml version="1.0" encoding="UTF-8" standalone="no"?>
<svg
   xmlns:dc="http://purl.org/dc/elements/1.1/"
   xmlns:cc="http://creativecommons.org/ns#"
   xmlns:rdf="http://www.w3.org/1999/02/22-rdf-syntax-ns#"
   xmlns:svg="http://www.w3.org/2000/svg"
   xmlns="http://www.w3.org/2000/svg"
   xmlns:sodipodi="http://sodipodi.sourceforge.net/DTD/sodipodi-0.dtd"
   xmlns:inkscape="http://www.inkscape.org/namespaces/inkscape"
   sodipodi:docname="wave1.svg"
   width="999.99713"
   height="70.891014"
   viewBox="0 0 264.58257 18.756581"
   version="1.1"
   id="svg8"
   inkscape:version="1.0 (4035a4fb49, 2020-05-01)">
  <defs
     id="defs2">
    <linearGradient
       id="sw-gradient-0"
       x1="0"
       x2="0"
       y1="1"
       y2="0">
      <stop
         stop-color="rgba(0, 203, 255, 1)"
         offset="0%"
         id="stop830" />
      <stop
         stop-color="rgba(0, 0, 0, 1)"
         offset="100%"
         id="stop832" />
    </linearGradient>
  </defs>
  <sodipodi:namedview
     inkscape:window-maximized="1"
     inkscape:window-y="-8"
     inkscape:window-x="-8"
     inkscape:window-height="817"
     inkscape:window-width="1536"
     id="base"
     pagecolor="#ffffff"
     bordercolor="#666666"
     borderopacity="1.0"
     inkscape:pageopacity="0.0"
     inkscape:pageshadow="2"
     inkscape:zoom="0.5"
     inkscape:cx="313.98163"
     inkscape:cy="33.225323"
     inkscape:document-units="px"
     inkscape:current-layer="layer1"
     inkscape:document-rotation="0"
     showgrid="false"
     showguides="true"
     inkscape:guide-bbox="true"
     showborder="false"
     units="px" />
  <metadata
     id="metadata5">
    <rdf:RDF>
      <cc:Work
         rdf:about="">
        <dc:format>image/svg+xml</dc:format>
        <dc:type
           rdf:resource="http://purl.org/dc/dcmitype/StillImage" />
        <dc:title />
        <dc:creator>
          <cc:Agent>
            <dc:title>Albertus Janse Van Rensburg</dc:title>
          </cc:Agent>
        </dc:creator>
      </cc:Work>
    </rdf:RDF>
  </metadata>
  <g
     transform="translate(879.13481,-97.97143)"
     inkscape:label="Layer 1"
     inkscape:groupmode="layer"
     id="layer1">
    <path
       id="path855"
       d="m -879.13481,99.847088 11.02427,5.626972 11.02428,-7.50263 11.02427,9.37829 11.02428,-7.502632 11.02427,15.005262 11.02428,-9.37829 11.02427,-3.75131 h 11.02427 l 11.02428,13.1296 11.02427,-13.1296 11.02428,1.87565 11.02427,5.62698 h 11.02428 l 11.02427,-1.87566 h 11.02427 l 11.02428,-7.502632 11.02427,11.253942 11.02428,-5.62697 11.02427,-5.626972 11.02427,3.751312 11.02428,-5.62697 h 11.02427 11.02428 11.02427 v 18.75658 h -11.02427 -11.02428 -11.02427 -11.02428 -11.02427 -11.02427 -11.02428 -11.02427 -11.02428 -11.02427 -11.02427 -11.02428 -11.02427 -11.02428 -11.02427 -11.02428 -11.02427 -11.02427 -11.02428 -11.02427 -11.02428 -11.02427 -11.02428 -11.02427 z"
       fill="url(#sw-gradient-2)"
       style="opacity:0.86774194;fill:#1377ab;fill-opacity:1;stroke-width:0.0382787" />
  </g>
</svg>
