<?xml version="1.0" encoding="UTF-8" standalone="no"?>
<svg
   xmlns:dc="http://purl.org/dc/elements/1.1/"
   xmlns:cc="http://creativecommons.org/ns#"
   xmlns:rdf="http://www.w3.org/1999/02/22-rdf-syntax-ns#"
   xmlns:svg="http://www.w3.org/2000/svg"
   xmlns="http://www.w3.org/2000/svg"
   xmlns:sodipodi="http://sodipodi.sourceforge.net/DTD/sodipodi-0.dtd"
   xmlns:inkscape="http://www.inkscape.org/namespaces/inkscape"
   inkscape:version="1.0 (4035a4fb49, 2020-05-01)"
   id="svg8"
   version="1.1"
   viewBox="0 0 264.58257 18.756577"
   height="70.890999"
   width="999.99713"
   sodipodi:docname="wave2.svg">
  <defs
     id="defs2">
    <linearGradient
       id="sw-gradient-0"
       x1="0"
       x2="0"
       y1="1"
       y2="0">
      <stop
         stop-color="rgba(0, 203, 255, 1)"
         offset="0%"
         id="stop830" />
      <stop
         stop-color="rgba(0, 0, 0, 1)"
         offset="100%"
         id="stop832" />
    </linearGradient>
  </defs>
  <sodipodi:namedview
     units="px"
     showborder="false"
     inkscape:guide-bbox="true"
     showguides="true"
     showgrid="false"
     inkscape:document-rotation="0"
     inkscape:current-layer="layer1"
     inkscape:document-units="px"
     inkscape:cy="209.73121"
     inkscape:cx="145.71286"
     inkscape:zoom="0.35"
     inkscape:pageshadow="2"
     inkscape:pageopacity="0.0"
     borderopacity="1.0"
     bordercolor="#666666"
     pagecolor="#ffffff"
     id="base"
     inkscape:window-width="1536"
     inkscape:window-height="817"
     inkscape:window-x="-8"
     inkscape:window-y="-8"
     inkscape:window-maximized="1" />
  <metadata
     id="metadata5">
    <rdf:RDF>
      <cc:Work
         rdf:about="">
        <dc:format>image/svg+xml</dc:format>
        <dc:type
           rdf:resource="http://purl.org/dc/dcmitype/StillImage" />
        <dc:title />
        <dc:creator>
          <cc:Agent>
            <dc:title>Albertus Janse Van Rensburg</dc:title>
          </cc:Agent>
        </dc:creator>
      </cc:Work>
    </rdf:RDF>
  </metadata>
  <g
     id="layer1"
     inkscape:groupmode="layer"
     inkscape:label="Layer 1"
     transform="translate(-67.280139,-92.675283)">
    <path
       id="path846"
       d="m 67.280139,94.550941 11.02427,-1.875658 11.02428,11.253947 11.024271,-5.626974 h 11.02428 l 11.02427,11.253944 11.02428,-9.37829 11.02427,1.87566 11.02427,-5.626971 11.02428,3.751311 11.02427,1.87566 11.02428,5.62697 11.02427,-7.50263 11.02428,7.50263 h 11.02427 l 11.02427,1.87566 11.02428,-9.37829 h 11.02427 l 11.02428,-7.502627 11.02427,16.880917 11.02427,-7.50263 11.02428,-7.502629 h 11.02427 l 11.02428,3.751315 11.02427,-1.875657 V 111.43186 H 320.83845 309.81417 298.7899 287.76562 276.74135 265.71708 254.6928 243.66853 232.64425 221.61998 210.59571 199.57143 188.54716 177.52288 166.49861 155.47433 144.45006 133.42579 122.40151 111.37724 100.35296 89.328689 78.304409 67.280139 Z"
       fill="url(#sw-gradient-1)"
       style="opacity:0.50645161;fill:#33b0eb;fill-opacity:1;stroke-width:0.0382786" />
  </g>
</svg>
