<?xml version="1.0" standalone="no"?>
<svg xmlns:xlink="http://www.w3.org/1999/xlink" id="wave" style="transform:rotate(0deg); transition: 0.3s" viewBox="0 0 1440 490" version="1.1" xmlns="http://www.w3.org/2000/svg"><defs><linearGradient id="sw-gradient-0" x1="0" x2="0" y1="1" y2="0"><stop stop-color="rgba(0, 203, 255, 1)" offset="0%"/><stop stop-color="rgba(0, 0, 0, 1)" offset="100%"/></linearGradient></defs><path style="transform:translate(0, 0px); opacity:1" fill="url(#sw-gradient-0)" d="M0,98L288,245L576,392L864,294L1152,147L1440,294L1728,441L2016,343L2304,147L2592,245L2880,0L3168,98L3456,49L3744,196L4032,392L4320,98L4608,245L4896,98L5184,98L5472,0L5760,98L6048,98L6336,392L6624,294L6912,49L6912,490L6624,490L6336,490L6048,490L5760,490L5472,490L5184,490L4896,490L4608,490L4320,490L4032,490L3744,490L3456,490L3168,490L2880,490L2592,490L2304,490L2016,490L1728,490L1440,490L1152,490L864,490L576,490L288,490L0,490Z"/><defs><linearGradient id="sw-gradient-1" x1="0" x2="0" y1="1" y2="0"><stop stop-color="rgba(0, 203, 255, 1)" offset="0%"/><stop stop-color="rgba(0, 0, 0, 1)" offset="100%"/></linearGradient></defs><path style="transform:translate(0, 50px); opacity:0.9" fill="url(#sw-gradient-1)" d="M0,49L288,0L576,294L864,147L1152,147L1440,441L1728,196L2016,245L2304,98L2592,196L2880,245L3168,392L3456,196L3744,392L4032,392L4320,441L4608,196L4896,196L5184,0L5472,441L5760,245L6048,49L6336,49L6624,147L6912,98L6912,490L6624,490L6336,490L6048,490L5760,490L5472,490L5184,490L4896,490L4608,490L4320,490L4032,490L3744,490L3456,490L3168,490L2880,490L2592,490L2304,490L2016,490L1728,490L1440,490L1152,490L864,490L576,490L288,490L0,490Z"/><defs><linearGradient id="sw-gradient-2" x1="0" x2="0" y1="1" y2="0"><stop stop-color="rgba(0, 0, 0, 1)" offset="0%"/><stop stop-color="rgba(0, 203, 255, 1)" offset="100%"/></linearGradient></defs><path style="transform:translate(0, 100px); opacity:0.8" fill="url(#sw-gradient-2)" d="M0,49L288,196L576,0L864,245L1152,49L1440,441L1728,196L2016,98L2304,98L2592,441L2880,98L3168,147L3456,294L3744,294L4032,245L4320,245L4608,49L4896,343L5184,196L5472,49L5760,147L6048,0L6336,0L6624,0L6912,0L6912,490L6624,490L6336,490L6048,490L5760,490L5472,490L5184,490L4896,490L4608,490L4320,490L4032,490L3744,490L3456,490L3168,490L2880,490L2592,490L2304,490L2016,490L1728,490L1440,490L1152,490L864,490L576,490L288,490L0,490Z"/></svg>